<?xml version="1.0" encoding="UTF-8" standalone="no"?>
<svg
   xmlns:dc="http://purl.org/dc/elements/1.1/"
   xmlns:cc="http://creativecommons.org/ns#"
   xmlns:rdf="http://www.w3.org/1999/02/22-rdf-syntax-ns#"
   xmlns:svg="http://www.w3.org/2000/svg"
   xmlns="http://www.w3.org/2000/svg"
   xmlns:sodipodi="http://sodipodi.sourceforge.net/DTD/sodipodi-0.dtd"
   xmlns:inkscape="http://www.inkscape.org/namespaces/inkscape"
   version="1.0"
   width="128.000000pt"
   height="128.000000pt"
   viewBox="0 0 128.000000 128.000000"
   preserveAspectRatio="xMidYMid meet"
   id="svg2"
   inkscape:version="0.48.2 r9819"
   sodipodi:docname="proton">
  <defs
     id="defs14">
    <linearGradient
       x1="-39.422"
       x2="-39.422"
       gradientTransform="matrix(.21865 0 0 .26685 56.619 1.4022)"
       y1="-5.2547"
       gradientUnits="userSpaceOnUse"
       y2="47.208"
       id="a">
      <stop
         id="stop2996"
         offset="0" />
      <stop
         id="stop2998"
         offset="1"
         stop-color="#363636" />
    </linearGradient>
  </defs>
  <sodipodi:namedview
     pagecolor="#ffffff"
     bordercolor="#666666"
     borderopacity="1"
     objecttolerance="10"
     gridtolerance="10"
     guidetolerance="10"
     inkscape:pageopacity="0"
     inkscape:pageshadow="2"
     inkscape:window-width="1920"
     inkscape:window-height="1018"
     id="namedview12"
     showgrid="false"
     inkscape:zoom="2.085965"
     inkscape:cx="45.866855"
     inkscape:cy="84.843007"
     inkscape:window-x="-8"
     inkscape:window-y="-8"
     inkscape:window-maximized="1"
     inkscape:current-layer="svg2" />
  <metadata
     id="metadata4">
Created by potrace 1.11, written by Peter Selinger 2001-2013
<rdf:RDF>
  <cc:Work
     rdf:about="">
    <dc:format>image/svg+xml</dc:format>
    <dc:type
       rdf:resource="http://purl.org/dc/dcmitype/StillImage" />
    <dc:title></dc:title>
  </cc:Work>
</rdf:RDF>
</metadata>
  <path
     inkscape:connector-curvature="0"
     id="path3108"
     d="m 50.905768,110.84637 c -12.53098,-3.37034 -26.09145,-14.559465 -31.61481,-26.086243 -6.97397,-14.554083 -6.97397,-29.949224 0,-44.503308 2.27336,-4.744313 4.42701,-7.618412 9.43097,-12.585852 10.60011,-10.522741 20.73383,-14.762494 35.28484,-14.762494 14.55101,0 24.68473,4.239753 35.28483,14.762494 7.354232,7.300552 11.539412,14.780614 13.532262,24.185852 2.36792,11.175422 0.98189,22.295176 -4.10128,32.903308 -5.60802,11.703458 -19.177872,22.796923 -31.957652,26.125633 -5.93665,1.5463 -20.04345,1.52481 -25.85916,-0.0394 z"
     style="fill:#b9b9b9" />
  <path
     inkscape:connector-curvature="0"
     id="path3042"
     d="M 53.157943,111.32989 C 34.852716,107.22192 19.85877,92.845197 15.13847,74.875454 c -1.655668,-6.302979 -1.649054,-18.315575 0.01357,-24.668238 4.291,-16.395201 17.661083,-30.215688 34.22458,-35.377512 8.060285,-2.511896 21.335507,-2.511896 29.395792,0 16.476615,5.13475 29.979514,19.046778 34.274414,35.312917 1.60639,6.083927 1.60639,18.783243 0,24.86717 -4.25027,16.097117 -17.803769,30.174419 -33.866141,35.174969 -6.969689,2.1698 -19.081725,2.70279 -26.022746,1.14513 z m 23.967675,-10.145 c 13.319121,-4.06072 24.474072,-16.409241 27.409422,-30.342168 1.32452,-6.28691 0.56244,-16.400165 -1.67542,-22.234036 -4.057985,-10.578844 -13.439539,-20.19331 -23.230124,-23.806871 -22.397539,-8.2666 -45.636312,1.899162 -54.422141,23.806871 -1.58527,3.952908 -1.886599,6.183771 -1.886599,13.967521 0,7.783749 0.301329,10.014613 1.886599,13.967519 8.426456,21.011603 30.0935,31.295114 51.918263,24.641164 z M 61.760959,89.426227 C 61.461562,89.130879 61.216597,82.145037 61.216597,73.90214 l 0,-14.987089 -2.877216,-1.528517 c -3.99199,-2.120738 -6.106037,-5.799047 -6.099453,-10.612667 0.0091,-6.990153 4.696661,-11.574069 11.834592,-11.574069 7.137931,0 11.825029,4.583916 11.834592,11.574069 0.0071,4.931019 -2.067045,8.399822 -6.486672,10.850181 l -3.306546,1.833235 0,6.795217 0,6.795216 4.491024,0 4.491023,0 0,6.444005 0,6.444004 -4.102957,0 c -3.625156,0 -4.19334,0.234508 -4.87909,2.013751 -0.731343,1.897552 -3.110523,2.704326 -4.354935,1.476751 z m 7.394747,-36.213296 c 1.973508,-1.214136 3.393813,-5.282308 2.840694,-8.136605 -0.638164,-3.29319 -4.107858,-5.859638 -7.92188,-5.859638 -8.41182,0 -11.19747,10.993857 -3.718671,14.676132 2.965568,1.46013 5.659722,1.251974 8.799857,-0.679889 z"
     style="fill:#424242" />
</svg>
